<svg width="40" height="40" viewBox="0 0 40 40" fill="none" xmlns="http://www.w3.org/2000/svg">
<path d="M20 0.625C9.29688 0.625 0.625 9.29688 0.625 20C0.625 30.7031 9.29688 39.375 20 39.375C30.7031 39.375 39.375 30.7031 39.375 20C39.375 9.29688 30.7031 0.625 20 0.625ZM36.875 20C36.875 29.2969 29.2969 36.875 20 36.875C10.7031 36.875 3.125 29.375 3.125 20C3.125 10.7812 10.625 3.125 20 3.125C29.2188 3.125 36.875 10.7031 36.875 20ZM25.2344 26.9531C25.625 27.2656 26.25 27.1094 26.4844 26.7188L27.1875 25.8594C27.5 25.3906 27.3438 24.8438 26.9531 24.5312L21.4844 20.5469V9.0625C21.4844 8.59375 21.0156 8.125 20.5469 8.125H19.4531C18.9062 8.125 18.5156 8.59375 18.5156 9.0625V21.5625C18.5156 21.875 18.5938 22.1094 18.8281 22.3438L25.2344 26.9531Z" fill="#3CC6F1"/>
</svg>
