<svg width="30" height="41" viewBox="0 0 30 41" fill="none" xmlns="http://www.w3.org/2000/svg">
<path d="M15 7.5C10.8594 7.5 7.5 10.9375 7.5 15C7.5 19.1406 10.8594 22.5 15 22.5C19.0625 22.5 22.5 19.1406 22.5 15C22.5 10.9375 19.0625 7.5 15 7.5ZM15 20C12.1875 20 10 17.8125 10 15C10 12.2656 12.1875 10 15 10C17.7344 10 20 12.2656 20 15C20 17.8125 17.7344 20 15 20ZM15 0C6.64062 0 0 6.71875 0 15C0 21.0938 2.03125 22.8125 13.4375 39.2188C14.1406 40.3125 15.7812 40.3125 16.4844 39.2188C27.8906 22.8125 30 21.0938 30 15C30 6.71875 23.2812 0 15 0ZM15 37.0312C4.0625 21.3281 2.5 20.0781 2.5 15C2.5 11.7188 3.75 8.59375 6.09375 6.17188C8.51562 3.82812 11.6406 2.5 15 2.5C18.2812 2.5 21.4062 3.82812 23.8281 6.17188C26.1719 8.59375 27.5 11.7188 27.5 15C27.5 20.0781 25.8594 21.3281 15 37.0312Z" fill="#3CC6F1"/>
</svg>
