<svg width="41" height="41" viewBox="0 0 41 41" fill="none" xmlns="http://www.w3.org/2000/svg">
<path d="M21.1613 22.4834V31.7415H33.0645V22.4834H21.1613ZM31.742 26.4511H27.7742V23.806H31.742V26.4511ZM26.4516 23.806V26.4511H22.4839V23.806H26.4516ZM22.4839 27.7737H26.4516V30.4189H22.4839V27.7737ZM27.7742 30.4189V27.7737H31.742V30.4189H27.7742Z" fill="white"/>
<path d="M10.5806 30.4189H15.8709V26.4512H10.5806V30.4189ZM11.9032 27.7738H14.5484V29.0963H11.9032V27.7738Z" fill="white"/>
<path d="M38.2463 23.8065C39.7646 23.8065 41 22.5711 41 21.0528V20.4325C41 19.4135 40.4411 18.4825 39.5424 18.0024L35.7097 15.9588V0H5.29032V15.9588L1.45755 18.003C0.558932 18.4825 0 19.4135 0 20.4325V21.0528C0 22.5711 1.2354 23.8065 2.75365 23.8065C3.17471 23.8065 3.58963 23.7041 3.96774 23.5175V37.0323H3.30645C1.48338 37.0323 0 38.5156 0 40.3387V41H41V40.3387C41 38.5156 39.5166 37.0323 37.6936 37.0323H37.0323V23.5181C37.4097 23.7041 37.8253 23.8065 38.2463 23.8065ZM6.6129 1.32258H34.3871V15.2533L31.7419 13.8429V3.96774H23.9485C24.0034 3.45983 23.9156 3.02198 23.4784 2.76883C22.716 2.32775 22.0018 3.08624 21.3114 3.81953C21.0773 4.06687 20.7037 4.46436 20.5 4.59481C20.2963 4.46436 19.9227 4.06752 19.6892 3.81889C18.9969 3.08559 18.2801 2.32775 17.5216 2.76818C17.0851 3.02198 16.9972 3.45983 17.0521 3.96774H9.25807V13.8429L6.6129 15.2533V1.32258ZM17.3676 5.29032C17.4593 5.59707 17.5855 6.02975 17.6056 6.25643C17.3905 6.35297 16.9204 6.46211 16.6223 6.53153C15.6026 6.76951 14.5484 7.01555 14.5484 7.93548C14.5484 8.85477 15.6026 9.10146 16.6214 9.33879C16.8306 9.38755 17.1215 9.45632 17.3524 9.52575L10.5806 13.138V5.29032H17.3676ZM18.614 11.0291C18.8665 10.1864 19.0847 9.45858 18.7806 8.93065C18.4838 8.41628 17.7602 8.24708 16.9217 8.05108C16.7848 8.01879 16.6136 7.97907 16.4451 7.93548C16.6136 7.89189 16.7848 7.85153 16.9223 7.81989C17.7602 7.62389 18.4832 7.45469 18.7806 6.93967C19.0847 6.41239 18.8665 5.68522 18.614 4.84118C18.5843 4.74269 18.5491 4.62516 18.5148 4.50278C18.5914 4.58286 18.6643 4.65938 18.7263 4.72622C19.3415 5.3788 19.8723 5.94354 20.5 5.94354C21.1277 5.94354 21.6586 5.3788 22.2743 4.72558C22.3363 4.65938 22.4093 4.58286 22.4852 4.50278C22.4503 4.62516 22.4157 4.74205 22.386 4.84182C22.1335 5.68458 21.9153 6.41238 22.2194 6.94032C22.5162 7.45469 23.2398 7.62389 24.0783 7.81989C24.2152 7.85218 24.3864 7.89189 24.5549 7.93548C24.3864 7.97907 24.2152 8.01944 24.0777 8.05108C23.2398 8.24708 22.5168 8.41628 22.2194 8.93129C21.9153 9.45858 22.1335 10.1857 22.386 11.0298C22.4157 11.1283 22.4509 11.2458 22.4852 11.3682C22.4086 11.2881 22.3357 11.2116 22.2737 11.1447C21.6586 10.4922 21.1277 9.92743 20.5 9.92743C19.8723 9.92743 19.3415 10.4922 18.7257 11.1454C18.6637 11.2116 18.5907 11.2881 18.5148 11.3682C18.5497 11.2458 18.5849 11.1283 18.614 11.0291ZM23.6486 9.52575C23.8791 9.45632 24.1687 9.38819 24.3777 9.33943C25.3974 9.10146 26.4516 8.85541 26.4516 7.93548C26.4516 7.0162 25.3974 6.76951 24.3786 6.53218C24.0803 6.46276 23.6101 6.35297 23.3944 6.25643C23.4135 6.02975 23.5407 5.59707 23.6324 5.29032H30.4194V13.1373L23.6486 9.52575ZM2.75365 22.4839C1.96482 22.4839 1.32258 21.8416 1.32258 21.0528V20.4325C1.32258 19.903 1.61286 19.4196 2.08042 19.17L17.2181 11.0979C16.9866 11.9303 16.8655 12.7211 17.5223 13.1028C17.6782 13.1935 17.8335 13.2332 17.9859 13.2332C18.5762 13.2332 19.1403 12.6346 19.6892 12.0521C19.9233 11.8041 20.2969 11.4066 20.5006 11.2762C20.7044 11.4066 21.078 11.8035 21.3114 12.0521C22.0031 12.7847 22.7193 13.5406 23.479 13.1028C24.1358 12.7211 24.0141 11.9297 23.7826 11.097L38.9202 19.17C39.3871 19.4196 39.6774 19.9036 39.6774 20.4325V21.0528C39.6774 21.8416 39.0352 22.4839 38.2463 22.4839C37.9997 22.4839 37.7549 22.419 37.5402 22.2972L20.5 12.6181L3.46047 22.2966C3.2451 22.419 3.00035 22.4839 2.75365 22.4839ZM39.5644 39.6774H1.43559C1.70876 38.9076 2.444 38.3548 3.30645 38.3548H37.6936C38.556 38.3548 39.2912 38.9076 39.5644 39.6774ZM9.25807 33.0645H10.5806V31.7419H9.25807V27.1129C9.25807 26.0193 10.1483 25.129 11.2419 25.129H15.2097C16.3033 25.129 17.1935 26.0193 17.1935 27.1129V37.0323H9.25807V33.0645ZM18.5161 37.0323V27.1129C18.5161 25.2898 17.0327 23.8065 15.2097 23.8065H11.2419C9.41887 23.8065 7.93548 25.2898 7.93548 27.1129V37.0323H5.29032V22.778L20.5 14.139L35.7097 22.778V37.0323H18.5161Z" fill="white"/>
</svg>
