<svg width="65" height="65" viewBox="0 0 65 65" fill="none" xmlns="http://www.w3.org/2000/svg">
<path d="M33.5483 35.6455V50.3229H52.4193V35.6455H33.5483ZM50.3225 41.9358H44.0322V37.7423H50.3225V41.9358ZM41.9354 37.7423V41.9358H35.6451V37.7423H41.9354ZM35.6451 44.0326H41.9354V48.2261H35.6451V44.0326ZM44.0322 48.2261V44.0326H50.3225V48.2261H44.0322Z" fill="white"/>
<path d="M16.7742 48.2259H25.1613V41.9355H16.7742V48.2259ZM18.8709 44.0323H23.0645V46.1291H18.8709V44.0323Z" fill="white"/>
<path d="M60.6344 37.7419C63.0414 37.7419 65 35.7834 65 33.3764V32.393C65 30.7774 64.1139 29.3016 62.6892 28.5404L56.6129 25.3005V0H8.3871V25.3005L2.31075 28.5414C0.886112 29.3016 0 30.7774 0 32.393V33.3764C0 35.7834 1.95856 37.7419 4.36555 37.7419C5.03308 37.7419 5.69088 37.5797 6.29032 37.2838V58.7097H5.24194C2.3517 58.7097 0 61.0614 0 63.9516V65H65V63.9516C65 61.0614 62.6483 58.7097 59.7581 58.7097H58.7097V37.2848C59.3081 37.5797 59.9669 37.7419 60.6344 37.7419ZM10.4839 2.09677H54.5161V24.182L50.3226 21.946V6.29032H37.9672C38.0542 5.48509 37.915 4.79094 37.2218 4.38961C36.0132 3.69034 34.8809 4.89281 33.7864 6.05536C33.4153 6.44748 32.823 7.07764 32.5 7.28445C32.177 7.07764 31.5847 6.4485 31.2146 6.05433C30.1171 4.89179 28.9806 3.69034 27.7782 4.38859C27.0861 4.79094 26.9468 5.48509 27.0338 6.29032H14.6774V21.946L10.4839 24.182V2.09677ZM27.534 8.3871C27.6794 8.87341 27.8795 9.55937 27.9113 9.91872C27.5703 10.0718 26.825 10.2448 26.3525 10.3549C24.7359 10.7321 23.0645 11.1222 23.0645 12.5806C23.0645 14.038 24.7359 14.4291 26.351 14.8054C26.6827 14.8827 27.1439 14.9917 27.5099 15.1018L16.7742 20.8285V8.3871H27.534ZM29.5099 17.4852C29.9103 16.1492 30.2563 14.9953 29.7741 14.1583C29.3036 13.3429 28.1565 13.0746 26.827 12.7639C26.61 12.7127 26.3387 12.6498 26.0715 12.5806C26.3387 12.5115 26.61 12.4475 26.8281 12.3974C28.1565 12.0867 29.3026 11.8184 29.7741 11.0019C30.2563 10.166 29.9103 9.01316 29.5099 7.67503C29.4629 7.5189 29.4071 7.33257 29.3528 7.13855C29.4741 7.26551 29.5898 7.38683 29.6881 7.49279C30.6633 8.52736 31.5049 9.42269 32.5 9.42269C33.4951 9.42269 34.3367 8.52736 35.3129 7.49177C35.4112 7.38683 35.5269 7.26551 35.6472 7.13855C35.5919 7.33257 35.5371 7.51788 35.4901 7.67606C35.0897 9.01214 34.7437 10.166 35.2259 11.0029C35.6964 11.8184 36.8435 12.0867 38.173 12.3974C38.39 12.4486 38.6613 12.5115 38.9285 12.5806C38.6613 12.6498 38.39 12.7137 38.1719 12.7639C36.8435 13.0746 35.6974 13.3429 35.2259 14.1594C34.7437 14.9953 35.0897 16.1481 35.4901 17.4863C35.5371 17.6424 35.5929 17.8287 35.6472 18.0227C35.5259 17.8958 35.4102 17.7745 35.3119 17.6685C34.3367 16.6339 33.4951 15.7386 32.5 15.7386C31.5049 15.7386 30.6633 16.6339 29.6871 17.6695C29.5888 17.7745 29.4731 17.8958 29.3528 18.0227C29.4081 17.8287 29.4639 17.6424 29.5099 17.4852ZM37.4916 15.1018C37.8571 14.9917 38.3163 14.8837 38.6475 14.8064C40.2641 14.4291 41.9355 14.0391 41.9355 12.5806C41.9355 11.1232 40.2641 10.7321 38.649 10.3559C38.176 10.2458 37.4307 10.0718 37.0887 9.91872C37.1189 9.55937 37.3206 8.87341 37.466 8.3871H48.2258V20.8275L37.4916 15.1018ZM4.36555 35.6452C3.11496 35.6452 2.09677 34.627 2.09677 33.3764V32.393C2.09677 31.5535 2.55698 30.7872 3.29822 30.3915L27.297 17.5943C26.9299 18.914 26.738 20.1676 27.7792 20.7727C28.0264 20.9165 28.2727 20.9795 28.5143 20.9795C29.4501 20.9795 30.3444 20.0304 31.2146 19.107C31.5857 18.7138 32.178 18.0837 32.501 17.8768C32.824 18.0837 33.4163 18.7128 33.7864 19.107C34.8829 20.2685 36.0183 21.4669 37.2229 20.7727C38.2641 20.1676 38.0711 18.9129 37.7041 17.5927L61.7028 30.3915C62.443 30.7872 62.9032 31.5545 62.9032 32.393V33.3764C62.9032 34.627 61.885 35.6452 60.6344 35.6452C60.2434 35.6452 59.8553 35.5423 59.5149 35.3493L32.5 20.0043L5.48612 35.3483C5.14467 35.5423 4.75665 35.6452 4.36555 35.6452ZM62.7241 62.9032H2.27594C2.70902 61.6828 3.87463 60.8064 5.24194 60.8064H59.7581C61.1254 60.8064 62.291 61.6828 62.7241 62.9032ZM14.6774 52.4194H16.7742V50.3226H14.6774V42.9839C14.6774 41.25 16.0887 39.8387 17.8226 39.8387H24.1129C25.8467 39.8387 27.2581 41.25 27.2581 42.9839V58.7097H14.6774V52.4194ZM29.3548 58.7097V42.9839C29.3548 40.0936 27.0031 37.7419 24.1129 37.7419H17.8226C14.9323 37.7419 12.5806 40.0936 12.5806 42.9839V58.7097H8.3871V36.1115L32.5 22.4154L56.6129 36.1115V58.7097H29.3548Z" fill="white"/>
</svg>
