<svg width="40" height="40" viewBox="0 0 40 40" fill="none" xmlns="http://www.w3.org/2000/svg">
<path d="M38.5156 27.5L30 23.8281C29.7656 23.75 29.2969 23.6719 29.0625 23.6719C28.4375 23.6719 27.5781 24.0625 27.1875 24.5312L23.75 28.75C19.1406 26.4844 13.5156 20.9375 11.25 16.25L15.4688 12.8125C15.9375 12.4219 16.3281 11.5625 16.3281 10.9375C16.3281 10.7031 16.25 10.2344 16.1719 10L12.5 1.48438C12.1875 0.703125 11.1719 0.078125 10.3125 0.078125C10.1562 0.078125 9.84375 0.078125 9.76562 0.078125L1.875 1.95312C0.78125 2.1875 0 3.20312 0 4.29688C0 24.0625 16.0156 40 35.7031 40C36.7969 40 37.8125 39.2188 38.125 38.125L39.9219 30.2344C39.9219 30.1562 39.9219 29.8438 39.9219 29.6875C39.9219 28.8281 39.2969 27.8125 38.5156 27.5ZM35.625 37.5C17.3438 37.5 2.5 22.6562 2.5 4.375L10.2344 2.57812L13.8281 10.9375L8.125 15.625C11.9531 23.6719 16.3281 28.0469 24.4531 31.875L29.0625 26.1719L37.4219 29.7656L35.625 37.5Z" fill="#3CC6F1"/>
</svg>
