<svg width="40" height="28" viewBox="0 0 40 28" fill="none" xmlns="http://www.w3.org/2000/svg">
<path d="M39 25H22.625C25.875 22.4375 28 18.5 28 14C28 6.3125 21.6875 0 14 0C6.25 0 0 6.3125 0 14C0 21.75 6.25 28 14 28H39C39.5 28 40 27.5625 40 27V26C40 25.5 39.5 25 39 25ZM14 25C7.9375 25 3 20.0625 3 14C3 7.9375 7.9375 3 14 3C20.0625 3 25 7.9375 25 14C25 20.0625 20.0625 25 14 25ZM14 8C10.6875 8 8 10.6875 8 14C8 17.3125 10.6875 20 14 20C17.3125 20 20 17.3125 20 14C20 10.6875 17.3125 8 14 8ZM14 17C12.3125 17 11 15.6875 11 14C11 12.375 12.3125 11 14 11C15.625 11 17 12.375 17 14C17 15.6875 15.625 17 14 17Z" fill="white"/>
</svg>
